<svg width="1024.000000" height="1024.000000" viewBox="0 0 1024 1024" fill="none" xmlns="http://www.w3.org/2000/svg" xmlns:xlink="http://www.w3.org/1999/xlink">
	<desc>
			Created with Pixso.
	</desc>
	<defs>
		<filter id="filter_161_23_dd" x="183.953125" y="169.599731" width="656.101562" height="683.520020" filterUnits="userSpaceOnUse" color-interpolation-filters="sRGB">
			<feFlood flood-opacity="0" result="BackgroundImageFix"/>
			<feGaussianBlur in="BackgroundImage" stdDeviation="1.33333"/>
			<feComposite in2="SourceAlpha" operator="in" result="effect_backgroundBlur_1"/>
			<feBlend mode="normal" in="SourceGraphic" in2="effect_backgroundBlur_1" result="shape"/>
		</filter>
		<filter id="filter_161_24_dd" x="404.000000" y="405.470245" width="396.031250" height="311.529755" filterUnits="userSpaceOnUse" color-interpolation-filters="sRGB">
			<feFlood flood-opacity="0" result="BackgroundImageFix"/>
			<feGaussianBlur in="BackgroundImage" stdDeviation="1.33333"/>
			<feComposite in2="SourceAlpha" operator="in" result="effect_backgroundBlur_1"/>
			<feBlend mode="normal" in="SourceGraphic" in2="effect_backgroundBlur_1" result="shape"/>
		</filter>
		<clipPath id="clip161_21">
			<rect id="Appicon_Square" width="1024.000000" height="1024.000000" fill="white" fill-opacity="0"/>
		</clipPath>
		<linearGradient x1="512.000854" y1="0.000916" x2="512.000854" y2="1023.999329" id="paint_linear_161_21_0" gradientUnits="userSpaceOnUse">
			<stop stop-color="#5582E9"/>
			<stop offset="1.000000" stop-color="#1C54D4"/>
		</linearGradient>
	</defs>
	<rect id="Appicon_Square" width="1024.000000" height="1024.000000" fill="url(#paint_linear_161_21_0)" fill-opacity="1.000000"/>
	<g clip-path="url(#clip161_21)">
		<g filter="url(#filter_161_23_dd)">
			<path id="outside" d="M561.92 853.12C571.73 853.12 580.69 850.34 588.8 844.8C596.9 839.46 603.09 832.42 607.36 823.68L633.28 763.2L591.04 737.92L561.92 804.48L458.88 803.84L430.72 736.96C427.09 729.28 421.65 723.62 414.4 720C404.16 715.52 392.43 708.9 379.2 700.16C373.44 696.1 367.04 694.08 360 694.08L354.56 693.12L281.6 700.8L231.04 611.2L274.56 552.64C279.25 545.59 281.6 538.45 281.6 531.2C281.17 525.01 280.96 518.08 280.96 510.4C280.96 502.72 281.17 495.78 281.6 489.6C281.6 481.49 279.25 474.13 274.56 467.52L231.04 407.68L283.2 318.4L356.8 327.68C361.49 328.1 365.76 327.89 369.6 327.04C373.44 325.97 376.85 324.37 379.84 322.24C389.01 315.62 400.32 309.22 413.76 303.04C421.44 298.98 426.77 293.33 429.76 286.07L460.48 216.96L563.52 217.92L592.64 286.07C595.2 292.9 600.53 298.56 608.64 303.04C619.94 308.16 631.46 314.88 643.2 323.2C650.88 328.32 658.56 330.02 666.24 328.32L740.16 320.64L790.72 410.56L747.84 468.16C742.08 474.34 739.73 481.81 740.8 490.56L790.08 493.44L830.08 439.68C836.05 431.57 839.36 422.61 840 412.8C840.43 403.2 838.08 394.02 832.96 385.28L782.4 296.96C777.71 288.85 770.98 282.45 762.24 277.76C753.71 273.06 744.32 271.25 734.08 272.32L667.2 280.96C658.02 274.13 647.46 267.94 635.52 262.4L608.64 199.36C604.59 190.61 598.5 183.46 590.4 177.92C582.08 172.37 573.12 169.6 563.52 169.6L462.08 169.6C452.27 169.6 443.2 172.37 434.88 177.92C426.34 183.46 420.05 190.61 416 199.36L389.12 262.4L381.44 266.88C377.39 269.01 373.44 271.14 369.6 273.28C365.76 275.2 362.02 277.44 358.4 280L290.88 272.32C281.07 270.82 271.68 272.21 262.72 276.48C253.76 280.96 246.72 287.57 241.6 296.32L191.04 384.64C185.92 392.74 183.68 401.81 184.32 411.84C185.17 421.86 188.37 430.93 193.92 439.04L234.88 493.44L234.88 528.96L193.92 583.36C187.94 591.68 184.64 600.64 184 610.24C183.57 620.05 185.92 629.33 191.04 638.08L240.96 725.44C246.08 734.18 253.01 740.69 261.76 744.96C270.29 749.44 279.68 751.14 289.92 750.08L356.16 742.4C370.45 751.57 381.23 757.97 388.48 761.6L415.36 823.04C418.77 832.21 424.64 839.46 432.96 844.8C441.07 850.34 450.24 853.12 460.48 853.12L561.92 853.12Z" fill="#FFFFFF" fill-opacity="0.900000" fill-rule="evenodd"/>
		</g>
		<g filter="url(#filter_161_24_dd)">
			<path id="inside" d="M792.98 642.2L616.63 527.68C623.2 487.86 606.03 446.41 569.21 422.5C530.46 397.33 481.15 401.12 446.53 426.86L529.86 480.97L492.11 539.11L407.18 485.34C396.15 527.77 414.34 574.02 453.09 599.19C489.91 623.1 534.77 621.92 568.47 599.72L744.82 714.24C752.57 719.28 762.16 717.24 767.19 709.49L796.14 664.92C802.77 656.82 800.39 645.64 792.98 642.2Z" fill="#FFFFFF" fill-opacity="0.900000" fill-rule="evenodd"/>
		</g>
	</g>
</svg>
